<svg xmlns="http://www.w3.org/2000/svg" viewBox="0 0 48 48" fill="none" aria-hidden="true">
  <defs>
    <linearGradient id="g" x1="0.2" y1="0" x2="0.85" y2="1">
      <stop offset="0%" stop-color="#F4ECD4"/>
      <stop offset="0.5" stop-color="#C9A227"/>
      <stop offset="100%" stop-color="#8F6F18"/>
    </linearGradient>
  </defs>
  <path fill="url(#g)" stroke="#9A7828" stroke-width="0.55" stroke-linecap="round" stroke-linejoin="round"
    d="M18 30c-1.8-1-3-3-3-5.5V14.5a2.5 2.5 0 0 1 5 0V22l2-1V11.5a2.5 2.5 0 0 1 5 0V21l2-1.2V13a2.5 2.5 0 0 1 5 1.8V22l2-.5a2.5 2.5 0 0 1 3 2.4c.2 2.6-1 5-3.2 6.5L26 38.5c-1.2 1-3 1-4.2 0l-6.5-5.5"/>
</svg>
