<svg xmlns="http://www.w3.org/2000/svg" viewBox="0 0 48 48" fill="none" aria-hidden="true">
  <defs>
    <linearGradient id="g" x1="0.2" y1="0" x2="0.85" y2="1">
      <stop offset="0%" stop-color="#F4ECD4"/>
      <stop offset="0.5" stop-color="#C9A227"/>
      <stop offset="100%" stop-color="#8F6F18"/>
    </linearGradient>
  </defs>
  <!-- wings -->
  <path fill="url(#g)" stroke="#9A7828" stroke-width="0.55" stroke-linejoin="round" opacity="0.95"
    d="M6 22c4-8 12-10 14-4-1-5-8-3-14 4zm36 0c-4-8-12-10-14-4 1-5 8-3 14 4z"/>
  <!-- heart -->
  <path fill="url(#g)" stroke="#9A7828" stroke-width="0.55" stroke-linejoin="round"
    d="M24 34c-7.5-6.5-10-9.5-10-13.5a5.5 5.5 0 0 1 9.2-3.8l.8.9.8-.9A5.5 5.5 0 0 1 34 20.5C34 24.5 31.5 27.5 24 34z"/>
</svg>
